# xmcd
#
# Track frame offsets: 
#        182
#        12355
#        22072
#        34140
#        49002
#        59480
#        70122
#        82745
#        93175
#        105667
#        116772
#        129727
#        142637
#        156472
#        169465
#        180672
#        191327
#        203927
#        221695
#        234880
#        252027
#        267167
#        282502
#        295725
#        312427
#
# Disc length: 4378 seconds
#
# Revision: 2
# Processed by: cddbd v1.5.2PL0 Copyright (c) Steve Scherf et al.
# Submitted via: ExactAudioCopyFreeDBPlugin 1.0
#
DISCID=68111819
DTITLE=Marie Osmond - 25 Hits
DYEAR=1995
DGENRE=Country
TTITLE0=Paper Roses
TTITLE1=Fool Number One
TTITLE2=Least Of All You
TTITLE3=True Love Lasts Forever
TTITLE4=Louisiana Bayou
TTITLE5=True Love's A Blessing
TTITLE6=It's The Little Things
TTITLE7=You're The Only World I Know
TTITLE8=The Things I Tell My Pillow
TTITLE9=Big Hurts Come From Little White Lies
TTITLE10=Donny Osmond and Marie Osmond - I'm Leaving It All Up To You
TTITLE11=In My Little Corner Of The World
TTITLE12=Donny Osmond and Marie Osmond - Morning Side Of The Mountain
TTITLE13=Donny Osmond and Marie Osmond - Take Me Back Again
TTITLE14=A' My Name Is Alice
TTITLE15=Donny Osmond and Marie Osmond - A Day Late And A Dollar Short
TTITLE16=Donny Osmond and Marie Osmond - Deep Purple
TTITLE17=Marie Osmond and Dan Seals - Meet Me In Montana
TTITLE18=There's No Stopping Your Heart
TTITLE19=Read My Lips
TTITLE20=Marie Osmond and Paul Davis - You're Still New To Me
TTITLE21=I Only Wanted You
TTITLE22=I'm In Love And He's In Dallas
TTITLE23=Marie Osmond and Paul Davis - Sweet Life
TTITLE24=Like A Hurricane
EXTD=ID3G:   2
EXTT0=
EXTT1=
EXTT2=
EXTT3=
EXTT4=
EXTT5=
EXTT6=
EXTT7=
EXTT8=
EXTT9=
EXTT10=
EXTT11=
EXTT12=
EXTT13=
EXTT14=
EXTT15=
EXTT16=
EXTT17=
EXTT18=
EXTT19=
EXTT20=
EXTT21=
EXTT22=
EXTT23=
EXTT24=
PLAYORDER=
